<svg width="34" height="30" viewBox="0 0 34 30" fill="none" xmlns="http://www.w3.org/2000/svg">
<path d="M28.6667 5H23.6667V3.33333C23.6667 2.44928 23.3155 1.60143 22.6904 0.976311C22.0653 0.351189 21.2174 0 20.3334 0H13.6667C12.7827 0 11.9348 0.351189 11.3097 0.976311C10.6846 1.60143 10.3334 2.44928 10.3334 3.33333V5H5.33337C4.00729 5 2.73552 5.52678 1.79784 6.46447C0.860158 7.40215 0.333374 8.67392 0.333374 10V25C0.333374 26.3261 0.860158 27.5979 1.79784 28.5355C2.73552 29.4732 4.00729 30 5.33337 30H28.6667C29.9928 30 31.2646 29.4732 32.2022 28.5355C33.1399 27.5979 33.6667 26.3261 33.6667 25V10C33.6667 8.67392 33.1399 7.40215 32.2022 6.46447C31.2646 5.52678 29.9928 5 28.6667 5ZM13.6667 3.33333H20.3334V5H13.6667V3.33333ZM30.3334 25C30.3334 25.442 30.1578 25.866 29.8452 26.1785C29.5327 26.4911 29.1087 26.6667 28.6667 26.6667H5.33337C4.89135 26.6667 4.46742 26.4911 4.15486 26.1785C3.8423 25.866 3.66671 25.442 3.66671 25V16.6667H10.3334V18.3333C10.3334 18.7754 10.509 19.1993 10.8215 19.5118C11.1341 19.8244 11.558 20 12 20C12.4421 20 12.866 19.8244 13.1786 19.5118C13.4911 19.1993 13.6667 18.7754 13.6667 18.3333V16.6667H20.3334V18.3333C20.3334 18.7754 20.509 19.1993 20.8215 19.5118C21.1341 19.8244 21.558 20 22 20C22.4421 20 22.866 19.8244 23.1786 19.5118C23.4911 19.1993 23.6667 18.7754 23.6667 18.3333V16.6667H30.3334V25ZM30.3334 13.3333H3.66671V10C3.66671 9.55797 3.8423 9.13405 4.15486 8.82149C4.46742 8.50893 4.89135 8.33333 5.33337 8.33333H28.6667C29.1087 8.33333 29.5327 8.50893 29.8452 8.82149C30.1578 9.13405 30.3334 9.55797 30.3334 10V13.3333Z" fill="#9b3922"/>
</svg>
