<svg width="35" height="41" viewBox="0 0 35 41" fill="none" xmlns="http://www.w3.org/2000/svg">
<path d="M31.4812 27.7434C32.2075 27.0987 32.6667 26.1571 32.6667 25.1094C32.6667 24.2098 32.3285 23.388 31.7733 22.7656C32.3286 22.1432 32.6667 21.3215 32.6667 20.4219C32.6667 19.5223 32.3285 18.7005 31.7733 18.0781C32.3286 17.4557 32.6667 16.634 32.6667 15.7344C32.6667 14.2066 31.6913 12.9041 30.3333 12.4203V11.0469C30.3333 5.23133 25.623 0.5 19.8333 0.5H15.1667C9.37697 0.5 4.66667 5.23133 4.66667 11.0469V12.4203C3.30874 12.9041 2.33333 14.2066 2.33333 15.7344C2.33333 16.634 2.67143 17.4557 3.22669 18.0781C2.67143 18.7005 2.33333 19.5223 2.33333 20.4219C2.33333 21.3215 2.67143 22.1432 3.22669 22.7656C2.67143 23.388 2.33333 24.2098 2.33333 25.1094C2.33333 26.1571 2.79253 27.0987 3.51882 27.7434C1.39409 29.2259 0 31.6945 0 34.4844V39.3281C0 39.9753 0.522356 40.5 1.16667 40.5H33.8333C34.4776 40.5 35 39.9753 35 39.3281V34.4844C35 31.6945 33.606 29.2259 31.4812 27.7434ZM5.83333 26.2812C5.19003 26.2812 4.66667 25.7555 4.66667 25.1094C4.66667 24.4632 5.19003 23.9375 5.83333 23.9375C6.47764 23.9375 7 23.4128 7 22.7656C7 22.1184 6.47764 21.5938 5.83333 21.5938C5.19003 21.5938 4.66667 21.068 4.66667 20.4219C4.66667 19.7757 5.19003 19.25 5.83333 19.25C6.47764 19.25 7 18.7253 7 18.0781C7 17.4309 6.47764 16.9062 5.83333 16.9062C5.19003 16.9062 4.66667 16.3805 4.66667 15.7344C4.66667 15.0882 5.19003 14.5625 5.83333 14.5625C6.47764 14.5625 7 14.0378 7 13.3906V11.0469C7 6.52367 10.6636 2.84375 15.1667 2.84375H19.8333C24.3364 2.84375 28 6.52367 28 11.0469V13.3906C28 14.0378 28.5224 14.5625 29.1667 14.5625C29.81 14.5625 30.3333 15.0882 30.3333 15.7344C30.3333 16.3805 29.81 16.9062 29.1667 16.9062C28.5224 16.9062 28 17.4309 28 18.0781C28 18.7253 28.5224 19.25 29.1667 19.25C29.81 19.25 30.3333 19.7757 30.3333 20.4219C30.3333 21.068 29.81 21.5938 29.1667 21.5938C28.5224 21.5938 28 22.1184 28 22.7656C28 23.4128 28.5224 23.9375 29.1667 23.9375C29.81 23.9375 30.3333 24.4632 30.3333 25.1094C30.3333 25.7555 29.81 26.2812 29.1667 26.2812H23.3333V23.8128C24.7758 22.3327 25.6667 20.3081 25.6667 18.0781V13.3906C25.6667 10.1598 23.0498 7.53125 19.8333 7.53125C19.19 7.53125 18.6667 7.00555 18.6667 6.35938C18.6667 5.71219 18.1443 5.1875 17.5 5.1875C16.8557 5.1875 16.3333 5.71219 16.3333 6.35938C16.3333 7.00555 15.81 7.53125 15.1667 7.53125C11.9502 7.53125 9.33333 10.1598 9.33333 13.3906V18.0781C9.33333 20.308 10.2242 22.3327 11.6667 23.8128V26.2812H5.83333ZM17.5 35.6562C16.8557 35.6562 16.3333 36.1809 16.3333 36.8281V38.1562H12.1626L14.7327 31.0181L16.6751 32.9692C16.9028 33.1981 17.2014 33.3125 17.5 33.3125C17.7986 33.3125 18.0972 33.1981 18.3249 32.9692L20.2674 31.018L22.8375 38.1562H18.6667V36.8281C18.6667 36.1809 18.1443 35.6562 17.5 35.6562ZM17.5 8.97695C18.1197 9.53492 18.9376 9.875 19.8333 9.875C21.7632 9.875 23.3333 11.4521 23.3333 13.3906V18.0781C23.3333 21.309 20.7165 23.9375 17.5 23.9375C14.2835 23.9375 11.6667 21.309 11.6667 18.0781V13.3906C11.6667 11.4521 13.2368 9.875 15.1667 9.875C16.0624 9.875 16.8803 9.53484 17.5 8.97695ZM21 26.9677L17.5 30.4834L14 26.9677V25.4887C15.0614 25.9965 16.2482 26.2812 17.5 26.2812C18.7518 26.2812 19.9386 25.9965 21 25.4887V26.9677ZM2.33333 34.4844C2.33333 31.2535 4.95017 28.625 8.16667 28.625H12.3501L12.9104 29.1878L9.68131 38.1562H2.33333V34.4844ZM32.6667 38.1562H25.3187L22.0897 29.1878L22.65 28.625H26.8333C30.0498 28.625 32.6667 31.2535 32.6667 34.4844V38.1562Z" fill="white"/>
</svg>
