<svg width="40" height="48" viewBox="0 0 40 48" fill="none" xmlns="http://www.w3.org/2000/svg">
<path d="M39.9487 12.3591C39.9242 11.0632 39.9009 9.83891 39.9009 8.65454C39.9009 7.72667 39.1551 6.97442 38.2346 6.97442C31.1087 6.97442 25.6831 4.90945 21.1607 0.475726C20.5138 -0.158687 19.4842 -0.158463 18.8375 0.475726C14.3155 4.90945 8.89091 6.97442 1.76537 6.97442C0.84516 6.97442 0.0991252 7.72667 0.0991252 8.65454C0.0991252 9.83914 0.0760198 11.0638 0.0513594 12.36C-0.177028 24.4201 -0.489837 40.937 19.4534 47.9073C19.6302 47.9691 19.8146 48 19.999 48C20.1834 48 20.368 47.9691 20.5446 47.9073C40.4894 40.9368 40.177 24.4194 39.9487 12.3591ZM19.9992 44.5369C2.89531 38.2719 3.15391 24.5476 3.38341 12.4241C3.39718 11.6965 3.41051 10.9913 3.41985 10.2999C10.0937 10.0159 15.4306 7.97667 19.9992 3.96365C24.5683 7.97667 29.9061 10.0161 36.5804 10.2999C36.5897 10.991 36.6031 11.6958 36.6168 12.4229C36.8461 24.5469 37.1045 38.2717 19.9992 44.5369Z" fill="#9B3922"/>
<path d="M25.1826 17.4665L17.2167 25.1544L13.8174 21.8736C13.1728 21.2517 12.1278 21.2517 11.4834 21.8736C10.8389 22.4959 10.8389 23.5044 11.4834 24.1265L16.0497 28.5336C16.3718 28.8445 16.7944 29 17.2167 29C17.639 29 18.0615 28.8445 18.3836 28.5336L27.5164 19.7193C28.1612 19.0972 28.1612 18.0886 27.5166 17.4667C26.8723 16.8446 25.8272 16.8444 25.1826 17.4665Z" fill="#9B3922"/>
</svg>
