<svg width="34" height="34" viewBox="0 0 34 34" fill="none" xmlns="http://www.w3.org/2000/svg">
<path d="M32.5 13.8C32.0317 13.2377 31.4457 12.7851 30.7834 12.4741C30.121 12.1631 29.3985 12.0012 28.6667 12H21.0667L22 9.61666C22.3883 8.57313 22.5175 7.451 22.3768 6.34653C22.2361 5.24205 21.8295 4.1882 21.192 3.27537C20.5545 2.36255 19.7051 1.61799 18.7166 1.10556C17.7281 0.593143 16.6301 0.328153 15.5167 0.333326C15.1961 0.333995 14.8825 0.427118 14.6135 0.601531C14.3445 0.775943 14.1315 1.02424 14 1.31666L9.25004 12H5.33337C4.00729 12 2.73552 12.5268 1.79784 13.4645C0.860158 14.4021 0.333374 15.6739 0.333374 17V28.6667C0.333374 29.9927 0.860158 31.2645 1.79784 32.2022C2.73552 33.1399 4.00729 33.6667 5.33337 33.6667H26.55C27.7197 33.6663 28.8523 33.2558 29.7506 32.5067C30.6489 31.7576 31.2562 30.7172 31.4667 29.5667L33.5834 17.9C33.7143 17.179 33.6851 16.438 33.4979 15.7295C33.3107 15.0209 32.97 14.3622 32.5 13.8ZM8.66671 30.3333H5.33337C4.89135 30.3333 4.46742 30.1577 4.15486 29.8452C3.8423 29.5326 3.66671 29.1087 3.66671 28.6667V17C3.66671 16.558 3.8423 16.134 4.15486 15.8215C4.46742 15.5089 4.89135 15.3333 5.33337 15.3333H8.66671V30.3333ZM30.3334 17.3L28.2167 28.9667C28.1457 29.3549 27.9392 29.7054 27.634 29.9557C27.3288 30.2059 26.9447 30.3398 26.55 30.3333H12V14.0167L16.5334 3.81666C17 3.9527 17.4334 4.184 17.8061 4.49597C18.1789 4.80793 18.4829 5.19377 18.699 5.62915C18.9152 6.06452 19.0387 6.53998 19.0618 7.02549C19.0849 7.51101 19.0071 7.99605 18.8334 8.44999L17.95 10.8333C17.7618 11.3371 17.6983 11.8789 17.7648 12.4125C17.8314 12.9462 18.0261 13.4558 18.3323 13.8979C18.6385 14.34 19.0471 14.7014 19.5232 14.9514C19.9994 15.2013 20.5289 15.3324 21.0667 15.3333H28.6667C28.9116 15.3329 29.1535 15.3865 29.3753 15.4902C29.5971 15.5939 29.7933 15.7452 29.95 15.9333C30.1106 16.1189 30.2282 16.3376 30.2945 16.5738C30.3607 16.8101 30.374 17.058 30.3334 17.3Z" fill="#9b3922"/>
</svg>
