<svg width="48" height="48" viewBox="0 0 48 48" fill="none" xmlns="http://www.w3.org/2000/svg">
<path d="M23.5 7.81083C21.4 7.81082 19.3471 8.44445 17.601 9.63161C15.8549 10.8188 14.494 12.5061 13.6903 14.4803C12.8867 16.4545 12.6764 18.6269 13.0861 20.7227C13.4958 22.8185 14.507 24.7436 15.9919 26.2546C17.4769 27.7656 19.3688 28.7946 21.4284 29.2115C23.4881 29.6284 25.623 29.4144 27.5632 28.5967C29.5033 27.779 31.1616 26.3942 32.3283 24.6174C33.495 22.8407 34.1177 20.7518 34.1177 18.615C34.1146 15.7505 32.9949 13.0044 31.0044 10.9789C29.0139 8.95342 26.315 7.81409 23.5 7.81083ZM23.5 26.4189C21.9831 26.4189 20.5003 25.9612 19.2391 25.1037C17.9778 24.2462 16.9948 23.0274 16.4143 21.6014C15.8338 20.1754 15.6819 18.6062 15.9778 17.0924C16.2738 15.5786 17.0042 14.188 18.0768 13.0966C19.1494 12.0052 20.516 11.2619 22.0037 10.9608C23.4914 10.6597 25.0335 10.8143 26.4349 11.4049C27.8363 11.9956 29.0341 12.9959 29.8769 14.2793C30.7196 15.5626 31.1694 17.0715 31.1693 18.615C31.1671 20.684 30.3583 22.6676 28.9205 24.1306C27.4827 25.5936 25.5333 26.4165 23.5 26.4189ZM41.447 18.9516C41.9465 17.9594 42.1138 16.8284 41.9236 15.7305C41.7334 14.6327 41.196 13.6281 40.3931 12.8695L38.4231 10.9881C38.112 10.7035 37.8977 10.3258 37.8111 9.90933L37.1949 7.23284C36.9508 6.14605 36.3645 5.17013 35.5252 4.45354C34.686 3.73695 33.6396 3.31891 32.5454 3.26301L29.8483 3.11057C29.4302 3.09612 29.0274 2.94695 28.6979 2.68455L26.5347 1.03691C25.6612 0.364097 24.5956 0 23.5 0C22.4044 0 21.3388 0.364097 20.4653 1.03691L18.3024 2.68427C17.9729 2.94684 17.57 3.09612 17.1517 3.11057L14.4543 3.26329C13.3601 3.31918 12.3138 3.73721 11.4745 4.45378C10.6352 5.17035 10.0489 6.14625 9.80477 7.23303L9.18855 9.90961C9.10194 10.3261 8.88762 10.7038 8.57648 10.9884L6.60677 12.8695C5.80396 13.6281 5.26659 14.6327 5.07638 15.7305C4.88616 16.8284 5.05352 17.9594 5.55299 18.9515L6.77169 21.405C6.96854 21.7807 7.043 22.2102 6.98435 22.6318L6.6638 25.3614C6.52793 26.4676 6.75082 27.5886 7.29858 28.5541C7.84634 29.5195 8.68898 30.2765 9.69835 30.7099L12.182 31.7923C12.2208 31.8092 12.2573 31.8272 12.2938 31.8452V46.5C12.2938 46.7498 12.3551 46.9957 12.4722 47.2152C12.5892 47.4348 12.7584 47.6212 12.9642 47.7574C13.17 47.8936 13.4059 47.9754 13.6507 47.9952C13.8954 48.0151 14.1411 47.9725 14.3656 47.8712L23.5 43.7493L32.6343 47.8712C32.8588 47.9725 33.1045 48.0151 33.3492 47.9952C33.594 47.9754 33.8299 47.8936 34.0357 47.7574C34.2416 47.6212 34.4107 47.4348 34.5277 47.2152C34.6448 46.9957 34.7061 46.7498 34.7061 46.5V31.8452C34.743 31.8271 34.7792 31.8091 34.8181 31.7922L37.3016 30.7099C38.3109 30.2765 39.1536 29.5195 39.7014 28.5541C40.2492 27.5887 40.4721 26.4676 40.3362 25.3614L40.0157 22.6318C39.957 22.2102 40.0315 21.7807 40.2283 21.405L41.447 18.9516ZM24.0975 40.737C23.9093 40.6521 23.7058 40.6082 23.4999 40.6082C23.2941 40.6082 23.0905 40.6521 22.9023 40.737L15.2422 44.1936V35.7048C15.7082 36.1882 16.2642 36.5721 16.8778 36.8341C17.4913 37.0962 18.15 37.2311 18.8155 37.2311C19.3191 37.2306 19.8199 37.1548 20.3018 37.0061L22.8878 36.2107C23.2856 36.0788 23.7144 36.0788 24.1122 36.2107L26.6982 37.0061C27.5776 37.282 28.5145 37.3068 29.4068 37.0776C30.2991 36.8485 31.1123 36.3744 31.7577 35.7069V44.1936L24.0975 40.737ZM38.8157 17.5985L37.597 20.0519C37.138 20.9552 36.9605 21.9795 37.0883 22.9881L37.4088 25.7179C37.4699 26.1805 37.3787 26.6506 37.1493 27.0548C36.92 27.4591 36.5655 27.7746 36.1413 27.952L33.6579 29.0342C32.7355 29.4259 31.9525 30.0945 31.4132 30.9508L29.9345 33.2515C29.6891 33.646 29.3221 33.9465 28.891 34.1062C28.4598 34.2659 27.9888 34.2757 27.5517 34.134L24.9654 33.3387C24.0114 33.0355 22.9893 33.0355 22.0354 33.3387L19.4488 34.1338C19.0116 34.2754 18.5407 34.2656 18.1095 34.1059C17.6784 33.9463 17.3115 33.6457 17.066 33.2513L15.5873 30.9509C15.0481 30.0946 14.2651 29.4261 13.3428 29.0343L10.8592 27.952C10.4348 27.7746 10.0802 27.459 9.85077 27.0547C9.62136 26.6504 9.53011 26.1801 9.59129 25.7174L9.91183 22.9878C10.0396 21.9793 9.86206 20.9551 9.40296 20.0519L8.18425 17.5981C7.97132 17.1847 7.89903 16.711 7.9787 16.2514C8.05837 15.7917 8.2855 15.3718 8.62458 15.0574L10.5946 13.176C11.3295 12.4869 11.8406 11.5862 12.0596 10.594L12.6758 7.91725C12.7738 7.46119 13.0175 7.05102 13.3689 6.7509C13.7203 6.45077 14.1595 6.27759 14.6179 6.25845L17.3155 6.10573C18.3138 6.05865 19.2743 5.70294 20.0689 5.08606L22.2321 3.43871C22.5953 3.15342 23.0412 2.99867 23.5 2.99867C23.9588 2.99867 24.4047 3.15342 24.7679 3.43871L26.9307 5.08606C27.7253 5.70294 28.6858 6.05865 29.6842 6.10573L32.3821 6.25845C32.8405 6.27751 33.2798 6.45063 33.6313 6.75075C33.9828 7.05086 34.2266 7.46105 34.3246 7.91715L34.9408 10.5936C35.1598 11.5859 35.6708 12.4866 36.4058 13.1757L38.3757 15.057C38.7148 15.3715 38.942 15.7915 39.0216 16.2512C39.1012 16.711 39.0288 17.1847 38.8157 17.5982L38.8157 17.5985Z" fill="#9b3922"/>
</svg>
