<svg width="38" height="38" viewBox="0 0 38 38" fill="none" xmlns="http://www.w3.org/2000/svg">
<path d="M22.3333 14H15.6666C15.2246 14 14.8007 14.1756 14.4881 14.4881C14.1756 14.8007 14 15.2246 14 15.6667V35.6667C14 36.1087 14.1756 36.5326 14.4881 36.8452C14.8007 37.1577 15.2246 37.3333 15.6666 37.3333H22.3333C22.7753 37.3333 23.1992 37.1577 23.5118 36.8452C23.8244 36.5326 24 36.1087 24 35.6667V15.6667C24 15.2246 23.8244 14.8007 23.5118 14.4881C23.1992 14.1756 22.7753 14 22.3333 14ZM20.6666 34H17.3333V17.3333H20.6666V34ZM35.6666 0.666656H29C28.5579 0.666656 28.134 0.842251 27.8214 1.15481C27.5089 1.46737 27.3333 1.8913 27.3333 2.33332V35.6667C27.3333 36.1087 27.5089 36.5326 27.8214 36.8452C28.134 37.1577 28.5579 37.3333 29 37.3333H35.6666C36.1087 37.3333 36.5326 37.1577 36.8451 36.8452C37.1577 36.5326 37.3333 36.1087 37.3333 35.6667V2.33332C37.3333 1.8913 37.1577 1.46737 36.8451 1.15481C36.5326 0.842251 36.1087 0.666656 35.6666 0.666656ZM34 34H30.6666V3.99999H34V34ZM8.99996 24H2.33329C1.89127 24 1.46734 24.1756 1.15478 24.4881C0.842221 24.8007 0.666626 25.2246 0.666626 25.6667V35.6667C0.666626 36.1087 0.842221 36.5326 1.15478 36.8452C1.46734 37.1577 1.89127 37.3333 2.33329 37.3333H8.99996C9.44199 37.3333 9.86591 37.1577 10.1785 36.8452C10.491 36.5326 10.6666 36.1087 10.6666 35.6667V25.6667C10.6666 25.2246 10.491 24.8007 10.1785 24.4881C9.86591 24.1756 9.44199 24 8.99996 24ZM7.33329 34H3.99996V27.3333H7.33329V34Z" fill="#9b3922"/>
</svg>
