<svg width="40" height="41" viewBox="0 0 40 41" fill="none" xmlns="http://www.w3.org/2000/svg">
<path d="M26.3261 12.8372C25.8665 12.3876 25.1213 12.3876 24.6615 12.8372L18.1459 19.2092L16.3384 17.4416C15.8788 16.9922 15.1335 16.9922 14.6739 17.4417L11.3448 20.6975C10.8851 21.147 10.8851 21.8759 11.3448 22.3255L17.3137 28.1629C17.773 28.6122 18.5187 28.6125 18.9783 28.1629L29.6554 17.7209C30.1148 17.2718 30.115 16.5424 29.6554 16.093L26.3261 12.8372ZM18.1459 25.7211L13.8416 21.5114L15.5061 19.8836L17.3136 21.6511C17.7732 22.1006 18.5185 22.1005 18.9781 21.651L25.4938 15.279L27.1583 16.9069L18.1459 25.7211Z" fill="white"/>
<path d="M37.9089 16.9354C38.4294 15.1939 38.4916 13.4452 38.4942 13.3623C38.5051 13.0255 38.3704 12.7003 38.1246 12.4698C38.064 12.413 36.7823 11.2194 35.1818 10.356C34.9966 8.54689 34.3842 6.9058 34.3549 6.82814C34.2361 6.51291 33.9872 6.264 33.6719 6.14518C33.5942 6.11588 31.9532 5.50353 30.1442 5.3183C29.2807 3.71775 28.087 2.43611 28.0303 2.37557C27.7998 2.12979 27.4754 1.99494 27.1378 2.00596C27.0549 2.00861 25.3061 2.0708 23.5646 2.59143C22.1688 1.4408 20.5933 0.657754 20.5185 0.620879C20.1917 0.459707 19.8085 0.459707 19.4817 0.620879C19.4069 0.657754 17.8314 1.4408 16.4356 2.59143C14.6941 2.0708 12.9453 2.00869 12.8624 2.00596C12.5255 1.99502 12.2004 2.12979 11.9699 2.37557C11.9131 2.43611 10.7195 3.71783 9.85604 5.3183C8.04697 5.50353 6.40596 6.11588 6.3283 6.14518C6.01299 6.264 5.76416 6.51291 5.64525 6.82814C5.61596 6.9058 5.00354 8.54689 4.81838 10.356C3.21791 11.2194 1.93619 12.413 1.87564 12.4698C1.62986 12.7003 1.4951 13.0255 1.50596 13.3623C1.50861 13.4453 1.5708 15.1939 2.09143 16.9354C0.940801 18.3313 0.157754 19.9068 0.120879 19.9816C-0.040293 20.3084 -0.040293 20.6914 0.120879 21.0182C0.157754 21.093 0.940723 22.6688 2.0915 24.0646C1.57104 25.806 1.50869 27.5546 1.50604 27.6375C1.49518 27.9744 1.62986 28.2996 1.87572 28.5301C1.93627 28.5869 3.21799 29.7803 4.81838 30.6438C5.00361 32.453 5.61596 34.0941 5.64525 34.1717C5.76416 34.487 6.01307 34.736 6.32838 34.8548C6.40604 34.884 8.04697 35.4962 9.85596 35.6813C10.7194 37.282 11.9131 38.5637 11.9699 38.6242C12.2004 38.8699 12.5237 39.0037 12.8624 38.9938C12.9453 38.9911 14.6938 38.9288 16.4352 38.4083C17.8311 39.559 19.4067 40.3421 19.4816 40.3791C19.8084 40.5402 20.1915 40.5403 20.5183 40.3791C20.5931 40.3421 22.1688 39.559 23.5647 38.4083C25.3061 38.9288 27.0546 38.9911 27.1375 38.9938C27.4742 39.0028 27.7995 38.8699 28.03 38.6242C28.0868 38.5637 29.2806 37.282 30.144 35.6813C31.953 35.4962 33.5939 34.884 33.6716 34.8548C33.9869 34.736 34.2358 34.487 34.3547 34.1717C34.384 34.0941 34.9964 32.453 35.1816 30.6438C36.782 29.7803 38.0637 28.5869 38.1242 28.5301C38.3701 28.2996 38.5048 27.9744 38.4939 27.6375C38.4913 27.5545 38.4289 25.806 37.9085 24.0646C39.0592 22.6688 39.8421 21.093 39.8791 21.0181C40.0402 20.6914 40.0402 20.3084 39.8791 19.9816C39.8424 19.9068 39.0594 18.3313 37.9089 16.9354ZM35.4875 24.2134C35.8878 25.2708 36.0501 26.4908 36.1135 27.1751C35.5867 27.6133 34.6136 28.3579 33.5772 28.8253C33.169 29.0092 32.9014 29.4098 32.8876 29.8574C32.8528 30.9876 32.5358 32.1768 32.3324 32.8333C31.678 33.0366 30.494 33.3521 29.3576 33.3872C28.91 33.4011 28.5095 33.6688 28.3255 34.0769C27.861 35.1073 27.1136 36.0842 26.6745 36.613C25.9896 36.5495 24.7706 36.387 23.7137 35.987C23.2949 35.8286 22.8224 35.9226 22.4962 36.2293C21.6753 37.0011 20.619 37.6491 19.9995 37.9985C19.3813 37.6503 18.3289 37.0048 17.504 36.2293C17.1783 35.9231 16.7057 35.8284 16.2865 35.987C15.2294 36.3871 14.0101 36.5495 13.3257 36.613C12.8863 36.084 12.1392 35.1071 11.6746 34.0769C11.4906 33.6687 11.0901 33.4011 10.6425 33.3872C9.51283 33.3524 8.32408 33.0358 7.66744 32.8324C7.464 32.1754 7.14736 30.9869 7.11252 29.8574C7.09877 29.4099 6.83111 29.0093 6.42291 28.8253C5.39268 28.3607 4.41565 27.6133 3.88682 27.1742C3.95025 26.4893 4.11268 25.2703 4.51268 24.2134C4.67119 23.7946 4.57713 23.322 4.27041 22.9958C3.49869 22.175 2.8508 21.1188 2.50135 20.4994C2.84955 19.8813 3.49494 18.8288 4.27049 18.004C4.57721 17.6778 4.67119 17.2052 4.51268 16.7864C4.11252 15.7294 3.95018 14.51 3.88674 13.8257C4.41588 13.3863 5.39283 12.6391 6.42291 12.1745C6.83111 11.9905 7.09877 11.5899 7.11252 11.1423C7.14736 10.0122 7.46432 8.82291 7.66768 8.1665C8.32205 7.96322 9.50596 7.64752 10.6424 7.61252C11.0899 7.59869 11.4905 7.33104 11.6746 6.92283C12.1391 5.89252 12.8865 4.91549 13.3256 4.38666C14.0105 4.45018 15.2297 4.61252 16.2865 5.0126C16.7053 5.17104 17.1778 5.07705 17.5041 4.77041C18.3249 3.99869 19.3811 3.3508 20.0006 3.00135C20.6188 3.34955 21.671 3.99494 22.496 4.77041C22.8221 5.07713 23.2947 5.17104 23.7135 5.0126C24.771 4.61229 25.991 4.44994 26.6753 4.38658C27.1135 4.9133 27.8581 5.88627 28.3255 6.92283C28.5095 7.33111 28.9101 7.59869 29.3577 7.61252C30.4878 7.64736 31.6771 7.96432 32.3335 8.1676C32.5368 8.82197 32.8525 10.0059 32.8876 11.1423C32.9014 11.5899 33.169 11.9903 33.5772 12.1744C34.6075 12.639 35.5846 13.3865 36.1134 13.8256C36.0499 14.5105 35.8875 15.7296 35.4875 16.7863C35.329 17.2051 35.423 17.6777 35.7297 18.0039C36.5015 18.8249 37.1494 19.8811 37.4989 20.5006C37.1507 21.1186 36.5053 22.171 35.7299 22.9957C35.4231 23.3221 35.3291 23.7946 35.4875 24.2134Z" fill="white"/>
</svg>
