<svg width="48" height="48" viewBox="0 0 48 48" fill="none" xmlns="http://www.w3.org/2000/svg">
<g clip-path="url(#clip0_4_1652)">
<path d="M36.9716 35.7991L31.313 32.532C30.4381 32.0282 29.399 31.892 28.4238 32.1533C27.4486 32.4146 26.6168 33.0521 26.111 33.9259L25.8876 34.3126C25.7234 34.597 25.5008 34.8433 25.2344 35.0353C24.968 35.2273 24.6639 35.3605 24.3422 35.4264C24.0205 35.4922 23.6885 35.489 23.3681 35.417C23.0478 35.345 22.7463 35.2059 22.4836 35.0089C20.6904 33.6573 18.9947 32.1809 17.4091 30.5907C15.8189 29.0052 14.3425 27.3095 12.991 25.5162C12.7939 25.2535 12.6548 24.9521 12.5828 24.6317C12.5108 24.3113 12.5076 23.9793 12.5734 23.6576C12.6392 23.3359 12.7725 23.0318 12.9645 22.7654C13.1565 22.499 13.4029 22.2764 13.6873 22.1122L14.074 21.889C14.9478 21.3832 15.5852 20.5514 15.8465 19.5761C16.1079 18.6009 15.9717 17.5618 15.4679 16.6868L12.201 11.0281C11.7484 10.2351 11.0245 9.63236 10.1627 9.33088C9.30092 9.0294 8.35919 9.04949 7.51101 9.38745L7.44079 9.41501C4.64601 10.5119 2.75207 11.2935 1.92511 12.1206C-0.397363 14.443 -0.626207 18.4322 1.28076 23.3532C3.03389 27.8766 6.41986 32.7888 10.8151 37.1843C15.2104 41.5799 20.1233 44.9661 24.6466 46.7191C26.8534 47.5743 28.8727 48.0001 30.6384 48.0001C32.8102 48.0001 34.5982 47.356 35.879 46.075C36.7062 45.248 37.4873 43.3541 38.5846 40.5592L38.6122 40.489C38.9503 39.6409 38.9705 38.6991 38.669 37.8372C38.3675 36.9753 37.7647 36.2515 36.9716 35.7991ZM35.8198 39.3924L35.7922 39.4627C35.2833 40.759 34.2243 43.4565 33.7578 43.9534C32.3475 45.3634 29.4219 45.3521 25.7306 43.9218C21.5877 42.3163 17.0441 39.1701 12.9373 35.0626C8.83045 30.955 5.68354 26.4122 4.07789 22.2692C2.64745 18.5779 2.63592 15.6522 4.04367 14.2442C4.54317 13.7754 7.24054 12.716 8.53692 12.2074L8.60723 12.1798C8.70431 12.1413 8.80776 12.1213 8.9122 12.121C9.05305 12.1214 9.19124 12.1593 9.31258 12.2309C9.43391 12.3024 9.53401 12.4049 9.60258 12.528L12.8696 18.1866C12.9765 18.3724 13.0054 18.5929 12.9499 18.7999C12.8944 19.0069 12.7591 19.1834 12.5736 19.2907L12.1873 19.5141C11.5354 19.8905 10.9708 20.4008 10.5307 21.0114C10.0907 21.6221 9.78514 22.3191 9.63434 23.0565C9.48354 23.794 9.49089 24.555 9.65591 25.2894C9.82093 26.0237 10.1399 26.7147 10.5916 27.3168C12.0282 29.2234 13.5975 31.0263 15.288 32.7119C16.9736 34.4025 18.7765 35.972 20.6832 37.4088C21.2852 37.8605 21.9763 38.1793 22.7106 38.3443C23.445 38.5092 24.206 38.5165 24.9434 38.3657C25.6808 38.2148 26.3778 37.9092 26.9884 37.4691C27.599 37.029 28.1093 36.4644 28.4856 35.8126L28.709 35.4258C28.8164 35.2404 28.9929 35.1051 29.1999 35.0496C29.4068 34.9942 29.6273 35.023 29.813 35.1299L35.4716 38.397C35.6415 38.4915 35.7708 38.645 35.8349 38.8285C35.8991 39.012 35.8937 39.2126 35.8198 39.3924ZM37.4998 11.7009C37.2088 11.5968 36.8927 11.5851 36.5948 11.6673C36.2969 11.7495 36.0316 11.9217 35.8352 12.1603L28.6927 20.8399C28.512 21.0595 28.3975 21.3258 28.3624 21.608C28.3273 21.8901 28.3731 22.1764 28.4945 22.4335C28.6159 22.6906 28.8078 22.9079 29.048 23.0601C29.2881 23.2123 29.5666 23.2931 29.8509 23.2931H35.4935V24.9534C35.4935 25.3512 35.6516 25.7328 35.9329 26.0141C36.2142 26.2954 36.5957 26.4534 36.9935 26.4534C37.3913 26.4534 37.7729 26.2954 38.0542 26.0141C38.3355 25.7328 38.4935 25.3512 38.4935 24.9534V23.2931H38.773C39.1708 23.2931 39.5523 23.1351 39.8336 22.8538C40.1149 22.5725 40.273 22.1909 40.273 21.7931C40.273 21.3953 40.1149 21.0137 39.8336 20.7324C39.5523 20.4511 39.1708 20.2931 38.773 20.2931H38.4935V13.113C38.4935 12.8039 38.3981 12.5024 38.2202 12.2496C38.0423 11.9969 37.7907 11.8052 37.4998 11.7009ZM35.4935 20.2925H33.0279L35.4935 17.2963V20.2925ZM25.3274 17.3305C25.6032 16.3205 25.4399 15.5689 24.8434 15.0967C24.1486 14.5469 22.9915 14.4499 22.209 14.8759C21.6456 15.1829 21.4072 15.7009 21.4801 16.4591C21.5182 16.8551 21.3975 17.25 21.1444 17.557C20.8913 17.8639 20.5267 18.0577 20.1307 18.0958C19.7347 18.1339 19.3397 18.0132 19.0328 17.7601C18.7259 17.507 18.532 17.1423 18.4939 16.7464C18.3044 14.7758 19.1355 13.1338 20.7743 12.2414C22.6212 11.2355 25.0597 11.4423 26.705 12.744C28.2647 13.9782 28.8175 15.9376 28.2214 18.1209C27.8153 19.6074 26.4114 20.7031 24.925 21.863C24.2909 22.3579 23.6173 22.8834 23.0062 23.4529H27.3643C27.7621 23.4529 28.1436 23.6109 28.4249 23.8922C28.7062 24.1735 28.8643 24.555 28.8643 24.9529C28.8643 25.3507 28.7062 25.7322 28.4249 26.0135C28.1436 26.2948 27.7621 26.4529 27.3643 26.4529H19.9522C19.698 26.4529 19.448 26.3883 19.2256 26.2652C19.0033 26.142 18.8158 25.9644 18.6809 25.749C18.546 25.5336 18.468 25.2874 18.4544 25.0336C18.4407 24.7798 18.4917 24.5267 18.6027 24.298C19.623 22.1952 21.5395 20.6995 23.0794 19.498C24.017 18.7662 25.184 17.8555 25.3274 17.3305ZM47.9998 19.5354C48.0068 22.1019 47.5046 24.6442 46.5225 27.0153C45.5403 29.3864 44.0976 31.5391 42.2778 33.3488C41.9959 33.6273 41.6153 33.7829 41.2191 33.7817C40.8228 33.7805 40.4432 33.6226 40.163 33.3424C39.8828 33.0622 39.7248 32.6825 39.7236 32.2863C39.7224 31.89 39.8781 31.5094 40.1565 31.2275C41.6968 29.6957 42.918 27.8736 43.7494 25.8666C44.5807 23.8597 45.0057 21.7077 44.9998 19.5354C44.9998 10.4179 37.5819 3.00007 28.4643 3.00007C26.292 2.99417 24.1401 3.41918 22.1331 4.25052C20.1262 5.08186 18.304 6.30301 16.7722 7.84329C16.49 8.12041 16.1099 8.27488 15.7144 8.27309C15.3189 8.2713 14.9401 8.11339 14.6605 7.83374C14.3808 7.55408 14.2229 7.1753 14.2212 6.77982C14.2194 6.38434 14.3739 6.00416 14.651 5.72201C16.4607 3.90227 18.6135 2.45956 20.9845 1.47738C23.3556 0.495209 25.8979 -0.00691615 28.4643 7.19485e-05C39.2361 7.19485e-05 47.9998 8.76373 47.9998 19.5354Z" fill="#9B3922"/>
</g>
<defs>
<clipPath id="clip0_4_1652">
<rect width="48" height="48" fill="white"/>
</clipPath>
</defs>
</svg>
