<svg width="41" height="37" viewBox="0 0 41 37" fill="none" xmlns="http://www.w3.org/2000/svg">
<path d="M20.5 14.875C24.3598 14.875 27.5 11.7348 27.5 7.875C27.5 4.01518 24.3598 0.875 20.5 0.875C16.6402 0.875 13.5 4.01518 13.5 7.875C13.5 11.7348 16.6402 14.875 20.5 14.875ZM20.5 3.28879C23.0289 3.28879 25.0862 5.34615 25.0862 7.875C25.0862 10.4039 23.0289 12.4612 20.5 12.4612C17.9711 12.4612 15.9138 10.4039 15.9138 7.875C15.9138 5.34615 17.9711 3.28879 20.5 3.28879Z" fill="white"/>
<path d="M34 14.125C36.4813 14.125 38.5 12.1063 38.5 9.625C38.5 7.1437 36.4813 5.125 34 5.125C31.5187 5.125 29.5 7.1437 29.5 9.625C29.5 12.1063 31.5187 14.125 34 14.125ZM34 7.57955C35.1279 7.57955 36.0455 8.49714 36.0455 9.625C36.0455 10.7529 35.1279 11.6705 34 11.6705C32.8721 11.6705 31.9545 10.7529 31.9545 9.625C31.9545 8.49714 32.8721 7.57955 34 7.57955Z" fill="white"/>
<path d="M35.1952 17.125H33.3827C31.2469 17.125 29.4031 18.4144 28.563 20.2665C26.8332 18.337 24.3486 17.125 21.5921 17.125H19.4079C16.6514 17.125 14.1668 18.337 12.437 20.2665C11.5968 18.4144 9.75303 17.125 7.61717 17.125H5.80468C2.87968 17.125 0.5 19.542 0.5 22.5129V31.2313C0.5 32.5211 1.53078 33.5704 2.79781 33.5704H9.96397C10.0841 34.9994 11.2601 36.125 12.6892 36.125H28.3108C29.7399 36.125 30.9158 34.9994 31.036 33.5704H38.1203C39.4325 33.5704 40.5 32.4839 40.5 31.1483V22.5129C40.4999 19.542 38.1202 17.125 35.1952 17.125ZM2.84375 22.5129C2.84375 20.8626 4.17202 19.52 5.80468 19.52H7.61717C9.24983 19.52 10.5781 20.8626 10.5781 22.5129V23.3328C9.79006 25.4295 9.95311 26.6861 9.95311 31.1754H2.84375V22.5129ZM28.7031 33.3292C28.7031 33.5503 28.5271 33.73 28.3108 33.73H12.6891C12.4728 33.73 12.2969 33.5502 12.2969 33.3292V26.7864C12.2969 22.7797 15.4868 19.52 19.4079 19.52H21.592C25.5131 19.52 28.7031 22.7797 28.7031 26.7863V33.3292ZM38.1562 31.1483C38.1562 31.1896 38.5931 31.1754 31.0468 31.1754C31.0468 26.6529 31.2086 25.4261 30.4218 23.3328V22.5129C30.4218 20.8626 31.7501 19.52 33.3827 19.52H35.1952C36.8279 19.52 38.1562 20.8626 38.1562 22.5129V31.1483Z" fill="white"/>
<path d="M7 14.5C9.4813 14.5 11.5 12.4813 11.5 10C11.5 7.5187 9.4813 5.5 7 5.5C4.5187 5.5 2.5 7.5187 2.5 10C2.5 12.4813 4.5187 14.5 7 14.5ZM7 7.95455C8.12786 7.95455 9.04545 8.87214 9.04545 10C9.04545 11.1279 8.12786 12.0455 7 12.0455C5.87214 12.0455 4.95455 11.1279 4.95455 10C4.95455 8.87214 5.87214 7.95455 7 7.95455Z" fill="white"/>
</svg>
