<svg width="34" height="34" viewBox="0 0 34 34" fill="none" xmlns="http://www.w3.org/2000/svg">
<path d="M28.8133 5.25753C28.8011 5.24451 28.7974 5.22721 28.7847 5.21449C28.772 5.20178 28.7544 5.19791 28.7413 5.18561C25.6238 2.0782 21.4017 0.333313 17 0.333313C12.5984 0.333313 8.37626 2.0782 5.25881 5.18561C5.2457 5.19791 5.2282 5.20168 5.21538 5.21449C5.20256 5.22731 5.199 5.24449 5.1868 5.25753C2.86389 7.59156 1.28446 10.5614 0.647824 13.7922C0.0111901 17.0231 0.345893 20.3701 1.60969 23.4109C2.87349 26.4517 5.00974 29.05 7.74883 30.8778C10.4879 32.7056 13.7071 33.6811 17 33.6811C20.293 33.6811 23.5122 32.7056 26.2513 30.8778C28.9904 29.05 31.1266 26.4517 32.3904 23.4109C33.6542 20.3701 33.9889 17.0231 33.3523 13.7922C32.7156 10.5614 31.1362 7.59156 28.8133 5.25753V5.25753ZM17 30.3333C15.0037 30.3327 13.0332 29.8829 11.2344 29.0174C9.43558 28.1519 7.8545 26.8928 6.6083 25.3333H13.3004C13.7639 25.8572 14.3334 26.2768 14.9711 26.5641C15.6089 26.8514 16.3005 27 17 27C17.6995 27 18.391 26.8514 19.0288 26.5641C19.6666 26.2768 20.236 25.8572 20.6995 25.3333H27.3917C26.1455 26.8928 24.5644 28.1519 22.7656 29.0174C20.9667 29.8829 18.9962 30.3327 17 30.3333V30.3333ZM15.3333 22C15.3333 21.6703 15.431 21.3481 15.6142 21.074C15.7973 20.7999 16.0576 20.5863 16.3622 20.4602C16.6667 20.334 17.0018 20.301 17.3251 20.3653C17.6484 20.4296 17.9454 20.5884 18.1785 20.8215C18.4116 21.0546 18.5703 21.3515 18.6346 21.6748C18.6989 21.9981 18.6659 22.3332 18.5398 22.6378C18.4136 22.9423 18.2 23.2026 17.9259 23.3858C17.6518 23.5689 17.3296 23.6666 17 23.6666C16.5581 23.6662 16.1344 23.4905 15.8219 23.178C15.5095 22.8655 15.3337 22.4419 15.3333 22V22ZM29.3503 22.0034L29.3331 22H22C21.9968 20.9693 21.6747 19.9649 21.0779 19.1247C20.481 18.2844 19.6387 17.6495 18.6666 17.3071V12C18.6666 11.558 18.491 11.134 18.1785 10.8215C17.8659 10.5089 17.442 10.3333 17 10.3333C16.5579 10.3333 16.134 10.5089 15.8215 10.8215C15.5089 11.134 15.3333 11.558 15.3333 12V17.3071C14.3612 17.6495 13.5189 18.2844 12.9221 19.1247C12.3252 19.9649 12.0031 20.9693 12 22H4.6668L4.6496 22.0034C4.21609 20.9338 3.92455 19.812 3.7824 18.6666H5.3333C5.77533 18.6666 6.19925 18.491 6.51181 18.1785C6.82437 17.8659 6.99997 17.442 6.99997 17C6.99997 16.558 6.82437 16.134 6.51181 15.8215C6.19925 15.5089 5.77533 15.3333 5.3333 15.3333H3.7824C4.08021 12.9643 5.01255 10.7197 6.48087 8.83683L7.57207 9.92805C7.72681 10.0828 7.91053 10.2055 8.11272 10.2893C8.3149 10.373 8.53161 10.4161 8.75045 10.4161C8.9693 10.4161 9.18601 10.373 9.38819 10.2893C9.59038 10.2055 9.77409 10.0828 9.92884 9.92804C10.0836 9.77329 10.2063 9.58958 10.2901 9.38739C10.3738 9.1852 10.4169 8.96849 10.4169 8.74965C10.4169 8.5308 10.3738 8.3141 10.2901 8.11191C10.2063 7.90972 10.0836 7.72601 9.92883 7.57126L8.83773 6.48016C10.7204 5.01233 12.9647 4.08026 15.3333 3.78241V5.33331C15.3333 5.77534 15.5089 6.19926 15.8215 6.51182C16.134 6.82438 16.5579 6.99998 17 6.99998C17.442 6.99998 17.8659 6.82438 18.1785 6.51182C18.491 6.19926 18.6666 5.77534 18.6666 5.33331V3.78241C21.0353 4.08026 23.2795 5.01233 25.1622 6.48016L24.0711 7.57126C23.7586 7.88379 23.583 8.30767 23.583 8.74965C23.583 9.19163 23.7586 9.61551 24.0711 9.92804C24.3836 10.2406 24.8075 10.4161 25.2495 10.4161C25.6915 10.4161 26.1153 10.2406 26.4279 9.92805L27.5191 8.83683C28.9874 10.7197 29.9197 12.9643 30.2175 15.3333H28.6666C28.2246 15.3333 27.8007 15.5089 27.4881 15.8215C27.1756 16.134 27 16.558 27 17C27 17.442 27.1756 17.8659 27.4881 18.1785C27.8007 18.491 28.2246 18.6666 28.6666 18.6666H30.2175C30.0754 19.812 29.7838 20.9338 29.3503 22.0034V22.0034Z" fill="#9b3922"/>
</svg>
